SplineFontDB: 3.0
FontName: Caeciliae-Regular
FullName: Caeciliae Regular
FamilyName: Caeciliae
Weight: Regular
Copyright: Copyright (c) 2008-2010 Oblates of St. Joseph. All rights reserved.
Version: 000.98
ItalicAngle: 0
UnderlinePosition: -100
UnderlineWidth: 50
Ascent: 750
Descent: 250
LayerCount: 2
Layer: 0 0 "Back"  1
Layer: 1 0 "Fore"  0
NeedsXUIDChange: 1
XUID: [1021 803 1319694450 12883105]
FSType: 0
OS2Version: 0
OS2_WeightWidthSlopeOnly: 0
OS2_UseTypoMetrics: 1
CreationTime: 1163897789
ModificationTime: 1264406732
PfmFamily: 17
TTFWeight: 500
TTFWidth: 5
LineGap: 90
VLineGap: 0
Panose: 2 0 6 3 0 0 0 0 0 0
OS2TypoAscent: 0
OS2TypoAOffset: 1
OS2TypoDescent: 0
OS2TypoDOffset: 1
OS2TypoLinegap: 0
OS2WinAscent: 0
OS2WinAOffset: 1
OS2WinDescent: 0
OS2WinDOffset: 1
HheadAscent: 0
HheadAOffset: 1
HheadDescent: 0
HheadDOffset: 1
OS2SubXSize: 649
OS2SubYSize: 699
OS2SubXOff: 0
OS2SubYOff: 479
OS2SupXSize: 649
OS2SupYSize: 699
OS2SupXOff: 0
OS2SupYOff: 0
OS2StrikeYSize: 50
OS2StrikeYPos: 259
OS2Vendor: 'PfEd'
Lookup: 6 0 0 "'calt' Contextual Alternates in Latin lookup 0"  {"'calt' Contextual Alternates in Latin lookup 0 subtable"  } ['calt' ('latn' <'dflt' > ) ]
Lookup: 4 0 1 "'liga' Standard Ligatures in Latin lookup 1"  {"'liga' Standard Ligatures in Latin lookup 1 subtable"  } ['liga' ('latn' <'dflt' > ) ]
Lookup: 1 0 0 "Single Substitution lookup 2"  {"Single Substitution lookup 2 subtable"  } []
Lookup: 1 0 0 "Single Substitution lookup 3"  {"Single Substitution lookup 3 subtable"  } []
Lookup: 1 0 0 "Single Substitution lookup 4"  {"Single Substitution lookup 4 subtable"  } []
Lookup: 1 0 0 "Single Substitution lookup 5"  {"Single Substitution lookup 5 subtable"  } []
Lookup: 1 0 0 "Single Substitution lookup 6"  {"Single Substitution lookup 6 subtable"  } []
Lookup: 1 0 0 "Single Substitution lookup 7"  {"Single Substitution lookup 7 subtable"  } []
Lookup: 1 0 0 "Single Substitution lookup 8"  {"Single Substitution lookup 8 subtable"  } []

StartChar: comma
Encoding: 44 44 3
Width: 193
Flags: HW
HStem: -16 16<0 201.88> 234 16<0 201.88> 484 16<0 201.88> 649 227<35 106 35 90> 734 16<0 201.88>
VStem: 0 201.88<-16 0 234 250 484 500 734 750> 115 43<707.02 800.683>
LayerCount: 2
Fore
SplineSet
54 865 m 0xf2
 61.3333 872.333 73.3333 876 90 876 c 0
 106 876 121.333 868 136 852 c 0
 150.667 836.667 158 813 158 781 c 0
 158 711.667 117 667.667 35 649 c 1
 34.3333 649.667 33.6667 651 33 653 c 0
 31.6667 656.333 31 659 31 661 c 0
 31 662.333 31.3333 663.333 32 664 c 0
 87.3333 688.667 115 718 115 752 c 0
 115 778.667 105.667 796 87 804 c 0
 81 806.667 72.3333 809 61 811 c 0
 49 812.333 43 819.667 43 833 c 0
 43 846.333 46.6667 857 54 865 c 0xf2
EndSplineSet
Refer: 600 -1 N 2.06 0 0 1 0 0 2
EndChar

StartChar: semicolon
Encoding: 59 59 18
Width: 128
Flags: HW
HStem: -16 16<0 137.2> 117 21<57 72> 117 21<57 72> 234 16<0 137.2> 484 16<0 137.2> 734 16<0 137.2>
VStem: 0 137.2<-16 0 234 250 484 500 734 750> 57 15<117 617>
LayerCount: 2
Fore
SplineSet
57 117 m 1xdd
 57 617 l 1
 72 617 l 1
 72 117 l 1
 57 117 l 1xdd
EndSplineSet
Refer: 600 -1 N 1.4 0 0 1 0 0 2
EndChar

StartChar: n
Encoding: 110 110 69
Width: 97
Flags: W
HStem: -16 16<0 135> 234 16<0 135> 484 16<0 135> 734 16<0 135>
LayerCount: 2
Fore
SplineSet
0 0 m 1
 135 0 l 1
 135 -16 l 1
 0 -16 l 1
 0 0 l 1
0 250 m 1
 135 250 l 1
 135 234 l 1
 0 234 l 1
 0 250 l 1
0 500 m 1
 135 500 l 1
 135 484 l 1
 0 484 l 1
 0 500 l 1
0 750 m 1
 135 750 l 1
 135 734 l 1
 0 734 l 1
 0 750 l 1
62 -39 m 1
 125 -133 l 1
 62 -227 l 1
 0 -133 l 1
 62 -39 l 1
EndSplineSet
EndChar

StartChar: q
Encoding: 113 113 72
Width: 128
Flags: W
HStem: -95 20G<0 5.33335 42 44.3334 84 86 117 119> -16 16<0 135> 234 16<0 135> 484 16<0 135> 734 16<0 135>
VStem: 42 42<-79 -56> 119 0<-148 -58.1539>
LayerCount: 2
Fore
SplineSet
0 -185 m 18
 0 -75 l 9
 10.6667 -99.6667 19 -112 25 -112 c 0
 36.3333 -112 42 -93.3333 42 -56 c 1
 46.6667 -82.6667 55.3333 -96 68 -96 c 0
 78.6667 -96 84 -79 84 -45 c 17
 88 -72.3333 93.3333 -86 100 -86 c 0
 108.667 -86 115 -67 119 -29 c 17
 119 -148 l 10
 119 -166.667 116.333 -177 111 -179 c 16
 109 -179 109 -179 107 -179 c 0
 100.333 -179 95.3333 -172 92 -158 c 9
 89.3333 -184 82 -197 70 -197 c 0
 54.6667 -197 45 -188.333 41 -171 c 9
 37 -195 30.3333 -207 21 -207 c 0
 7 -207 0 -199.667 0 -185 c 18
0 0 m 1
 135 0 l 1
 135 -16 l 1
 0 -16 l 1
 0 0 l 1
0 250 m 1
 135 250 l 1
 135 234 l 1
 0 234 l 1
 0 250 l 1
0 500 m 1
 135 500 l 1
 135 484 l 1
 0 484 l 1
 0 500 l 1
0 750 m 1
 135 750 l 1
 135 734 l 1
 0 734 l 1
 0 750 l 1
EndSplineSet
EndChar

StartChar: bar
Encoding: 124 124 82
Width: 96
Flags: HW
HStem: -16 16<0 97.02> -16 21<82 98> 234 16<0 97.02> 484 16<0 97.02> 730 20G<82 98> 734 16<0 97.02>
VStem: 0 97.02<-16 0 234 250 484 500 734 750> 82 16<-16 750>
LayerCount: 2
Fore
SplineSet
98 -16 m 17x79
 82 -16 l 1xb1
 82 750 l 1
 98 750 l 9
 98 -16 l 17x79
EndSplineSet
Refer: 600 -1 N 0.99 0 0 1 0 0 2
EndChar

StartChar: .notdef
Encoding: 0 -1 84
AltUni2: 00fffd.ffffffff.0 00fffd.ffffffff.0 00fffd.ffffffff.0 00fffd.ffffffff.0 00fffd.ffffffff.0 00fffd.ffffffff.0 00fffd.ffffffff.0
Width: 432
Flags: W
HStem: 0 33<66 333> 633 33<66 333>
VStem: 33 33<33 633> 333 33<33 633>
LayerCount: 2
Fore
SplineSet
33 0 m 1
 33 666 l 1
 366 666 l 1
 366 0 l 1
 33 0 l 1
66 33 m 1
 333 33 l 1
 333 633 l 1
 66 633 l 1
 66 33 l 1
EndSplineSet
EndChar

StartChar: uniE100
Encoding: 259 57600 85
Width: 128
Flags: W
HStem: -74 20G<42 85>
VStem: 0 128<-191 -60.5852>
LayerCount: 2
Fore
SplineSet
63.5 -54 m 4
 106.5 -54 128 -66.333 128 -91 c 6
 128 -212 l 5
 114 -198 92.667 -191 64 -191 c 4
 34.667 -191 14 -198 0 -212 c 5
 0 -91 l 6
 0 -66.3333 20.5 -54 63.5 -54 c 4
EndSplineSet
EndChar

StartChar: upodatus
Encoding: 260 -1 86
Width: 0
Flags: W
HStem: -90 21<-117 -109.333 -12 0> -48 119<-99.8853 -34.257>
VStem: -12 12<-90 -70.1715>
LayerCount: 2
Fore
SplineSet
-59 71 m 0
 -41.6667 71 -27.5 67.8333 -16.5 61.5 c 0
 -5.5 55.1667 0 45.6667 0 33 c 2
 0 -90 l 1
 -12 -90 l 1
 -12 -76 -15.3333 -65.5 -22 -58.5 c 0
 -28.6667 -51.5 -41 -48 -59 -48 c 0
 -82.3333 -48 -101.667 -53.3333 -117 -64 c 1
 -117 33 l 2
 -117 58.3333 -97.6667 71 -59 71 c 0
EndSplineSet
EndChar

StartChar: custos.line
Encoding: 261 -1 87
Width: 64
Flags: W
HStem: -216 434<52.4168 58 58 64>
VStem: 52 12<-56 216.061>
LayerCount: 2
Fore
SplineSet
58 218 m 0
 65.3333 218.667 67.3333 210 64 192 c 1
 64 -216 l 17
 46.6667 -213.333 33 -209 23 -203 c 0
 13 -196.333 8 -188 8 -178 c 2
 8 -40 l 17
 15.3333 -46.6667 21.6667 -51 27 -53 c 0
 34.3333 -55 42.6667 -56 52 -56 c 1
 52 196 l 2
 52 210.667 54 218 58 218 c 0
EndSplineSet
EndChar

StartChar: lpodatus
Encoding: 262 -1 88
Width: 128
Flags: W
HStem: -203 117<6.00202 104.865>
VStem: 0 128<-201.398 -197 -197 -86.0681> 116 12<-80.2167 -71>
LayerCount: 2
Fore
SplineSet
58 -86 m 0xc0
 86.667 -86 102.333 -85.667 105 -85 c 0
 112.333 -83 116 -78.333 116 -71 c 1
 128 -71 l 9xa0
 128 -196 l 2
 128 -199.333 126.029 -201.684 123 -202 c 24
 98.9482 -204.513 100.333 -203 61 -203 c 0
 25 -203 26.7383 -204.138 5 -202 c 24
 2.25586 -201.73 1.0842e-19 -199.667 0 -197 c 10
 0 -92 l 2
 0 -87.3333 1.66667 -85 5 -85 c 0
 6 -85 6 -85 8 -85 c 0
 11.3333 -85.6667 27.333 -86 58 -86 c 0xc0
EndSplineSet
EndChar

StartChar: diamond
Encoding: 263 57616 89
Width: 128
Flags: W
HStem: -229 193<64 64>
VStem: 0 128<-133 -133>
LayerCount: 2
Fore
SplineSet
64 -36 m 1
 128 -133 l 1
 64 -229 l 1
 0 -133 l 1
 64 -36 l 1
EndSplineSet
EndChar

StartChar: uniE2B0
Encoding: 264 58032 90
Width: 1000
Flags: W
HStem: 89 20G<58 65>
LayerCount: 2
Fore
SplineSet
34 82 m 0
 34 90 36.8333 96.5 42.5 101.5 c 0
 48.1667 106.5 54.5 109 61.5 109 c 0
 68.5 109 74.8333 106.5 80.5 101.5 c 0
 86.1667 96.5 89 90 89 82 c 0
 89 74 86.1667 67.5 80.5 62.5 c 0
 74.8333 57.5 68.5 55 61.5 55 c 0
 54.5 55 48.1667 57.5 42.5 62.5 c 0
 36.8333 67.5 34 74 34 82 c 0
EndSplineSet
EndChar

StartChar: uniE2B1
Encoding: 265 58033 91
Width: 1000
Flags: W
HStem: 152 20G<58 65> 152 20G<58 65>
LayerCount: 2
Fore
SplineSet
34 144.5 m 0x80
 34 152.167 36.8333 158.667 42.5 164 c 0
 48.1667 169.333 54.5 172 61.5 172 c 0
 68.5 172 74.8333 169.333 80.5 164 c 0
 86.1667 158.667 89 152.167 89 144.5 c 0
 89 136.833 86.1667 130.333 80.5 125 c 0
 74.8333 119.667 68.5 117 61.5 117 c 0
 54.5 117 48.1667 119.667 42.5 125 c 0
 36.8333 130.333 34 136.833 34 144.5 c 0x80
EndSplineSet
EndChar

StartChar: uniE140
Encoding: 266 57664 92
Width: 128
Flags: W
HStem: -96 20G<0 2.5 45 50 88.75 93 126 128>
VStem: 128 0<-155 -50.2857>
LayerCount: 2
Fore
SplineSet
0 -186 m 18
 0 -76 l 1
 5 -95 16 -116 28 -116 c 0
 40 -116 44 -93.5 46 -56 c 1
 54 -83.5 59.333 -99 74 -99 c 0
 85.333 -99 87.5 -66.5 90 -44 c 1
 96 -69 100.333 -88 109 -88 c 0
 117 -88 124 -56.5 128 -27 c 1
 128 -155 l 10
 128 -169.062 124 -189 116 -189 c 0
 107.333 -189 104.5 -182.5 99 -166 c 1
 97 -187 88.667 -208 76 -208 c 0
 62.667 -208 55 -198.5 44 -180 c 1
 39 -201.5 32.333 -219 21 -219 c 0
 7 -219 0 -201.255 0 -186 c 18
EndSplineSet
EndChar

StartChar: doclef
Encoding: 267 -1 93
Width: 128
Flags: W
HStem: 183 20G<70.3335 90 105.143 128> 183 20G<70.3335 90>
VStem: 0 8<-27.0931 11.0042> 0 128<-177 -67 50 117>
LayerCount: 2
Fore
SplineSet
0 -134 m 2x90
 0 117 l 2
 0 143 7.66667 163.833 23 179.5 c 0
 38.3333 195.167 57.667 203 83 203 c 0
 97 203 108 199 116 191 c 0
 124 183 128 172.333 128 159 c 2
 128 21 l 1x90
 120 28 l 2
 114.667 32.667 106.833 37.5 96.5 42.5 c 0
 86.167 47.5 75 50 63 50 c 0
 47.667 50 35.5 44.3333 24.5 33 c 0
 13.5 21.6667 8 8 8 -8 c 0xa0
 8 -24 13.5 -37.8333 24.5 -49.5 c 0
 35.5 -61.1667 47.667 -67 63 -67 c 0
 75 -67 86.167 -64.667 96.5 -60 c 0
 106.833 -55.333 114.667 -50.667 120 -46 c 2
 128 -38 l 1
 128 -177 l 2
 128 -189.667 124 -200.167 116 -208.5 c 0
 108 -216.833 97 -221 83 -221 c 0
 57.667 -221 38.3333 -213 23 -197 c 0
 7.66667 -181 4.33681e-19 -160 0 -134 c 2x90
EndSplineSet
EndChar

StartChar: faclef
Encoding: 268 -1 94
Width: 248
Flags: W
HStem: -78 21<0 6.66665 36.3334 72.6666 194 213 224.667 248> 174 20G<194 213>
VStem: 98 11<-230.908 -225 -225 -79> 126 8<-25.1348 11.9433> 126 122<-168 -63 48 111>
LayerCount: 2
Fore
SplineSet
109 34 m 2xe0
 109 -214 l 2
 109 -226 107 -232.333 103 -233 c 1
 101 -233 99.6667 -232.333 99 -231 c 256
 98.3333 -229.667 98 -227.667 98 -225 c 2
 98 -79 l 1
 87.3333 -68.3333 72.6667 -63 54 -63 c 0
 31.3333 -63 13.3333 -68 0 -78 c 1
 0 34 l 2
 0 57.3333 18.1667 69 54.5 69 c 0
 90.8333 69 109 57.3333 109 34 c 2xe0
126 -126 m 2xe8
 126 111 l 2
 126 135.667 133.333 155.667 148 171 c 0
 162.667 186.333 182 194 206 194 c 0
 220 194 230.5 190.333 237.5 183 c 0
 244.5 175.667 248 165.667 248 153 c 2
 248 21 l 1xe8
 241 27 l 2
 236.333 31.6667 229 36.3333 219 41 c 0
 209 45.6667 198.667 48 188 48 c 0
 172.667 48 159.833 42.6667 149.5 32 c 0
 139.167 21.3333 134 8.5 134 -6.5 c 0xf0
 134 -21.5 139.167 -34.6667 149.5 -46 c 0
 159.833 -57.3333 172.667 -63 188 -63 c 0
 198.667 -63 209 -60.6667 219 -56 c 0
 229 -51.3333 236.333 -47 241 -43 c 2
 248 -36 l 1
 248 -168 l 2
 248 -180.667 244.333 -190.833 237 -198.5 c 0
 229.667 -206.167 219.333 -210 206 -210 c 0
 182 -210 162.667 -202.167 148 -186.5 c 0
 133.333 -170.833 126 -150.667 126 -126 c 2xe8
EndSplineSet
EndChar

StartChar: custos.space
Encoding: 269 -1 95
Width: 64
Flags: W
HStem: -216 345<53.6934 58 58 64>
VStem: 52 12<-56 126.379>
LayerCount: 2
Fore
SplineSet
58 129 m 16
 62 128.333 64 120 64 104 c 1
 64 -216 l 17
 46.6667 -213.333 33 -209 23 -203 c 0
 13 -196.333 8 -188 8 -178 c 2
 8 -40 l 17
 15.3333 -46.6667 21.6667 -51 27 -53 c 0
 34.3333 -55 42.6667 -56 52 -56 c 1
 52 114 l 10
 52 124.667 54 129.667 58 129 c 16
EndSplineSet
EndChar

StartChar: fullbar
Encoding: 283 -1 109
Width: 193
Flags: HW
HStem: -16 16<0 194.04> -16 21<62 78 178 193> 234 16<0 194.04> 484 16<0 194.04> 730 20G<62 78 178 193> 734 16<0 194.04>
VStem: 0 194.04<-16 0 234 250 484 500 734 750> 62 16<-16 750> 178 15<-16 750>
LayerCount: 2
Fore
SplineSet
78 -16 m 9xb9
 62 -16 l 17
 62 750 l 9
 78 750 l 1
 78 -16 l 9xb9
178 -16 m 17xb880
 178 750 l 9
 193 750 l 25
 193 -16 l 25
 178 -16 l 17xb880
EndSplineSet
Refer: 600 -1 N 1.98 0 0 1 0 0 2
Ligature2: "'liga' Standard Ligatures in Latin lookup 1 subtable" bar bar
LCarets2: 1 0 
EndChar

StartChar: uniE120
Encoding: 287 57632 113
Width: 128
Flags: W
HStem: -442 138<3.33213 100.517>
VStem: 114 14<-623.953 -459>
LayerCount: 2
Fore
SplineSet
128 -341 m 10
 128 -612 l 18
 128 -621.333 125 -626.667 119 -628 c 1
 117 -628 115.667 -627 115 -625 c 0
 114.333 -623 114 -612 114 -592 c 2
 114 -459 l 1
 101.333 -447.667 84.667 -442 64 -442 c 0
 34 -442 13.3333 -448.667 0 -462 c 1
 0 -341 l 2
 0 -316.333 20.5 -304 63.5 -304 c 0
 106.5 -304 128 -316.333 128 -341 c 10
EndSplineSet
EndChar

StartChar: uniE121
Encoding: 288 57633 114
Width: 128
Flags: W
HStem: -317 138<3.33213 100.517>
VStem: 114 14<-592.461 -334>
LayerCount: 2
Fore
SplineSet
128 -216 m 10
 128 -581 l 18
 128 -589.667 125 -595 119 -597 c 1
 117 -597 115.667 -596 115 -594 c 0
 114.333 -592 114 -581 114 -561 c 2
 114 -334 l 1
 101.333 -322.667 84.667 -317 64 -317 c 0
 34 -317 13.3333 -323.667 0 -337 c 1
 0 -216 l 2
 0 -191.333 20.5 -179 63.5 -179 c 0
 106.5 -179 128 -191.333 128 -216 c 10
EndSplineSet
EndChar

StartChar: uniE130
Encoding: 289 57648 115
Width: 128
Flags: W
HStem: -442 138<27.3064 124.665>
VStem: 0 14<-623.953 -459>
LayerCount: 2
Fore
SplineSet
0 -341 m 18
 0 -316.333 21.5 -304 64.5 -304 c 0
 107.5 -304 128 -316.333 128 -341 c 2
 128 -462 l 1
 114.667 -448.667 93.6667 -442 63 -442 c 0
 43 -442 26.6667 -447.667 14 -459 c 1
 14 -592 l 2
 14 -612 13.6667 -623 13 -625 c 0
 12.3333 -627 11 -628 9 -628 c 1
 3 -626.667 0 -621.333 0 -612 c 10
 0 -341 l 18
EndSplineSet
EndChar

StartChar: uniE131
Encoding: 290 57649 116
Width: 128
Flags: W
HStem: -317 138<27.3064 124.665>
VStem: 0 14<-592.461 -334>
LayerCount: 2
Fore
SplineSet
0 -216 m 18
 0 -191.333 21.5 -179 64.5 -179 c 0
 107.5 -179 128 -191.333 128 -216 c 2
 128 -337 l 1
 114.667 -323.667 93.6667 -317 63 -317 c 0
 43 -317 26.6667 -322.667 14 -334 c 1
 14 -561 l 2
 14 -581 13.6667 -592 13 -594 c 0
 12.3333 -596 11 -597 9 -597 c 1
 3 -595 0 -589.667 0 -581 c 10
 0 -216 l 18
EndSplineSet
EndChar

StartChar: uniE2C0
Encoding: 378 58048 204
Width: 0
Flags: W
HStem: -214 21G<-74 -55> -140 20G<-74 -55>
VStem: -74 19<-214 -120>
LayerCount: 2
Fore
SplineSet
-74 -120 m 1
 -55 -120 l 1
 -55 -214 l 1
 -74 -214 l 1
 -74 -120 l 1
EndSplineSet
EndChar

StartChar: NameMe.285
Encoding: 402 -1 228
Width: 0
Flags: W
HStem: -32 48<0 16 37 53 72 88 109 125>
VStem: 0 16<-32 16> 37 16<-32 16> 72 16<-32 16> 109 16<-32 16>
LayerCount: 2
Fore
SplineSet
109 16 m 1
 125 16 l 1
 125 -32 l 1
 109 -32 l 1
 109 16 l 1
72 16 m 1
 88 16 l 1
 88 -32 l 1
 72 -32 l 1
 72 16 l 1
37 16 m 1
 53 16 l 1
 53 -32 l 1
 37 -32 l 1
 37 16 l 1
0 16 m 1
 16 16 l 1
 16 -32 l 1
 0 -32 l 1
 0 16 l 1
EndSplineSet
EndChar

StartChar: uniE700
Encoding: 458 59136 284
Width: 12
Flags: W
HStem: 97 20G<0 12> 97 20G<0 12>
VStem: 0 12<-133 117>
LayerCount: 2
Fore
SplineSet
12 117 m 5xa0
 12 -133 l 5
 0 -133 l 5
 0 117 l 5
 12 117 l 5xa0
EndSplineSet
EndChar

StartChar: uniE710
Encoding: 459 59152 285
Width: 12
Flags: W
HStem: 222 20G<0 12> 222 20G<0 12>
VStem: 0 12<-133 242>
LayerCount: 2
Fore
SplineSet
12 242 m 1xa0
 12 -133 l 1
 0 -133 l 1
 0 242 l 1
 12 242 l 1xa0
EndSplineSet
EndChar

StartChar: uniE2D0
Encoding: 481 58064 307
Width: 0
Flags: W
HStem: -180 20<-132 3>
VStem: -135 140<-180 -160 -180 -160>
LayerCount: 2
Fore
SplineSet
5 -160 m 1
 3 -180 l 1
 -135 -180 l 1
 -132 -160 l 1
 5 -160 l 1
EndSplineSet
EndChar

StartChar: uniE1E0
Encoding: 499 57824 325
Width: 128
Flags: W
HStem: -64 20G<18 35.6666>
VStem: 0 128<-189 -88>
LayerCount: 2
Fore
SplineSet
0 -69 m 18
 0 -52.3333 9 -44 27 -44 c 0
 44.3333 -44 63.333 -47.333 86 -54 c 0
 106 -59.333 120 -70.667 128 -88 c 9
 128 -238 l 17
 122.667 -217.333 104.667 -203 74 -195 c 0
 58.667 -191 45.6667 -189 33 -189 c 0
 16.3333 -189 5.33333 -194 0 -204 c 9
 0 -69 l 18
EndSplineSet
EndChar

StartChar: uniE1F0
Encoding: 526 57840 352
Width: 128
Flags: W
HStem: -80 20G<0 2.66667 125.333 128>
VStem: 0 128<-176 -176 -176 -74>
LayerCount: 2
Fore
SplineSet
0 -194 m 10
 0 -60 l 17
 5.33333 -69.3333 16.3333 -74 33 -74 c 0
 45.6667 -74 58.667 -72 74 -68 c 0
 104.667 -60.667 122.667 -46.333 128 -25 c 9
 128 -176 l 17
 120 -192.667 106 -204 86 -210 c 0
 63.333 -216.667 44.3333 -220 27 -220 c 0
 9 -220 0 -211.333 0 -194 c 10
EndSplineSet
EndChar

StartChar: uniE200
Encoding: 527 57856 353
Width: 11
Flags: W
HStem: -95 20G<-13.6665 -9.6665>
VStem: -53 64<-166 -94> -1 12<-231 -167.101>
LayerCount: 2
Fore
SplineSet
-1 -189 m 6xa0
 -1 -173.667 -7.33301 -166 -20 -166 c 4
 -34.667 -166 -45 -170.667 -53 -180 c 1
 -53 -112 l 2
 -53 -103.333 -49.6667 -95.6667 -43 -89 c 0
 -36.3333 -82.3333 -30 -78 -22 -76 c 4
 -18.667 -75.333 -15.333 -75 -12 -75 c 4
 -7.33301 -75 -3 -76 1 -78 c 4
 7.66699 -81.333 11 -86.667 11 -94 c 6xc0
 11 -189 l 5
 11 -231 l 5
 -1 -231 l 5
 -1 -189 l 6xa0
EndSplineSet
EndChar

StartChar: uniE210
Encoding: 540 57872 366
Width: 11
Flags: W
HStem: -52 20G<-53 -49 -1 11>
VStem: -53 64<-170 -151 -151 -98> -1 12<-96.8516 -32>
LayerCount: 2
Fore
SplineSet
-1 -74 m 2xa0
 -1 -32 l 1
 11 -32 l 1
 11 -74 l 1xa0
 11 -170 l 2
 11 -177.333 7.66699 -182.667 1 -186 c 0
 -3 -188 -7.33301 -189 -12 -189 c 0
 -15.333 -189 -18.667 -188.667 -22 -188 c 0
 -30 -186 -36.3333 -181.667 -43 -175 c 0
 -49.6667 -168.333 -53 -160.333 -53 -151 c 2
 -53 -84 l 1xc0
 -45 -93.3333 -34.667 -98 -20 -98 c 0
 -7.33301 -98 -1 -90 -1 -74 c 2xa0
EndSplineSet
EndChar

StartChar: uniE1B0
Encoding: 554 57776 380
Width: 128
Flags: W
HStem: -214 21G<91.6665 102> -73 20G<26 36.3334 128 128>
VStem: 0 128<-187.393 -78.5664>
LayerCount: 2
Fore
SplineSet
128 -175 m 17
 128 -191 124 -202.333 116 -209 c 0
 112 -212.333 106 -214 98 -214 c 0
 85.333 -214 77.5898 -206.005 64.5 -201 c 24
 51.0693 -195.865 42.6667 -188 30 -188 c 0
 22 -188 16 -190 12 -194 c 0
 4 -201.333 0 -212.667 0 -228 c 9
 0 -92 l 18
 0 -75.3333 4 -64 12 -58 c 0
 16 -54.6667 22 -53 30 -53 c 0
 42.6667 -53 51.0682 -60.5619 64.5 -65.5 c 24
 77.5879 -70.3115 85.333 -78 98 -78 c 0
 106 -78 112 -76 116 -72 c 0
 124 -65.333 128 -54.333 128 -39 c 9
 128 -175 l 17
EndSplineSet
EndChar

StartChar: uniE1C0
Encoding: 582 57792 408
Width: 128
Flags: W
HStem: -215 21G<26 36.3334> -60 20G<0 0 91.6665 102>
VStem: 0 128<-188.393 -79.5663>
LayerCount: 2
Fore
SplineSet
0 -176 m 9
 0 -40 l 17
 0 -54.6667 4 -65.6667 12 -73 c 0
 16 -77 22 -79 30 -79 c 0
 42.6667 -79 51.1284 -72.9332 63.5 -66.5 c 0
 76 -60 85.333 -54 98 -54 c 0
 106 -54 112 -55.667 116 -59 c 0
 124 -65 128 -76.333 128 -93 c 10
 128 -229 l 17
 128 -213.667 124 -202.333 116 -195 c 0
 112 -191 106 -189 98 -189 c 0
 85.333 -189 75.3333 -196 63.5 -202 c 0
 51.0009 -208.338 42.6667 -215 30 -215 c 0
 22 -215 16 -213.333 12 -210 c 0
 4 -203.333 0 -192 0 -176 c 9
EndSplineSet
EndChar

StartChar: uniE220
Encoding: 597 57888 423
Width: 386
Flags: W
HStem: -325 124<204.138 380.144> -69 20G<0 18.3333>
VStem: 0 387<-201 -188.333 -201 -163>
LayerCount: 2
Fore
SplineSet
363 -325 m 0
 287.667 -325 226 -317 178 -301 c 0
 108.667 -277.667 49.3333 -244.333 0 -201 c 1
 0 -49 l 1
 36.6667 -85 97.6667 -125.333 183 -170 c 0
 222.333 -190.667 273.333 -201 336 -201 c 0
 363.333 -201 380.333 -188.333 387 -163 c 1
 387 -311 l 1
 387 -320.333 379 -325 363 -325 c 0
EndSplineSet
EndChar

StartChar: uniE230
Encoding: 611 57904 437
Width: 483
Flags: W
HStem: -469 124<353.813 476.687> -69 20G<0 32>
VStem: 0 483<-307 -201>
LayerCount: 2
Fore
SplineSet
460 -469 m 0
 395.333 -469 318 -440.333 228 -383 c 0
 126 -318.333 50 -257.667 0 -201 c 1
 0 -49 l 1
 64 -133 141.333 -203.667 232 -261 c 0
 306.667 -308.333 373.667 -336.333 433 -345 c 0
 437 -345 437 -345 442 -345 c 0
 462.667 -345 476.333 -332.333 483 -307 c 1
 483 -454 l 1
 483 -464 475.333 -469 460 -469 c 0
EndSplineSet
EndChar

StartChar: custos.line.high
Encoding: 623 -1 449
Width: 64
Flags: W
HStem: -479 433<52.4168 57 57 64>
VStem: 52 12<-473.009 -463 -463 -206>
LayerCount: 2
Fore
SplineSet
64 -454 m 10
 64 -466.667 61.6667 -475 57 -479 c 16
 53.6667 -479 52 -473.667 52 -463 c 2
 52 -206 l 1
 42.6667 -206 34.3333 -207 27 -209 c 0
 21.6667 -210.333 15.3333 -214.667 8 -222 c 9
 8 -84 l 2
 8 -74 13 -65.6667 23 -59 c 0
 33 -52.3333 46.6667 -48 64 -46 c 9
 64 -454 l 10
EndSplineSet
EndChar

StartChar: custos.space.high
Encoding: 624 -1 450
Width: 64
Flags: W
HStem: -389 345<53.4077 58 58 64>
VStem: 52 12<-384.292 -374 -374 -204>
LayerCount: 2
Fore
SplineSet
64 -364 m 10
 64 -376.667 62 -385 58 -389 c 16
 54 -390.333 52 -385.333 52 -374 c 2
 52 -204 l 1
 42.6667 -204 34.3333 -205 27 -207 c 0
 21.6667 -208.333 15.3333 -212.667 8 -220 c 9
 8 -82 l 2
 8 -72 13 -63.6667 23 -57 c 0
 33 -50.3333 46.6667 -46 64 -44 c 9
 64 -364 l 10
EndSplineSet
EndChar

StartChar: uniE270
Encoding: 625 57968 451
Width: 128
Flags: W
HStem: -191 12<37.4308 92.1345> -85 31<36.9396 92.6852>
VStem: 0 19<-148.573 -114.537> 111 17<-148.573 -114.537>
LayerCount: 2
Fore
SplineSet
63.5 -54 m 0
 106.5 -54 128 -66.333 128 -91 c 2
 128 -212 l 1
 114 -198 92.667 -191 64 -191 c 0
 34.667 -191 14 -198 0 -212 c 1
 0 -91 l 2
 0 -66.3333 20.5 -54 63.5 -54 c 0
19 -131.5 m 0
 19 -144.5 23.5 -155.667 32.5 -165 c 0
 41.5 -174.333 52 -179 64 -179 c 0
 77.3333 -179 88.5 -174.333 97.5 -165 c 0
 106.5 -155.667 111 -144.5 111 -131.5 c 0
 111 -118.5 106.5 -107.5 97.5 -98.5 c 0
 88.5 -89.5 77.3333 -85 64 -85 c 0
 52 -85 41.5 -89.5 32.5 -98.5 c 0
 23.5 -107.5 19 -118.5 19 -131.5 c 0
EndSplineSet
EndChar

StartChar: uniE720
Encoding: 639 59168 465
Width: 12
Flags: W
HStem: 347 20G<0 12> 347 20G<0 12>
VStem: 0 12<-133 367>
LayerCount: 2
Fore
SplineSet
12 367 m 1xa0
 12 -133 l 1
 0 -133 l 1
 0 367 l 1
 12 367 l 1xa0
EndSplineSet
EndChar

StartChar: uniE730
Encoding: 649 59184 475
Width: 12
Flags: W
HStem: 472 20G<0 12> 472 20G<0 12>
VStem: 0 12<-133 492>
LayerCount: 2
Fore
SplineSet
12 492 m 1xa0
 12 -133 l 1
 0 -133 l 1
 0 492 l 1
 12 492 l 1xa0
EndSplineSet
EndChar

StartChar: uniE740
Encoding: 658 59200 484
Width: 12
Flags: W
HStem: -28 20G<0 12>
VStem: 0 12<-200 -8>
LayerCount: 2
Fore
SplineSet
12 -8 m 5
 12 -200 l 5
 0 -200 l 5
 0 -8 l 5
 12 -8 l 5
EndSplineSet
EndChar

StartChar: uniE750
Encoding: 671 59216 497
Width: 12
Flags: W
HStem: 97 20G<0 12> 97 20G<0 12>
VStem: 0 12<-200 117>
LayerCount: 2
Fore
SplineSet
12 117 m 5xa0
 12 -200 l 5
 0 -200 l 5
 0 117 l 5
 12 117 l 5xa0
EndSplineSet
EndChar

StartChar: uniE760
Encoding: 683 59232 509
Width: 12
Flags: W
HStem: 222 20G<0 12> 222 20G<0 12>
VStem: 0 12<-200 242>
LayerCount: 2
Fore
SplineSet
12 242 m 1xa0
 12 -200 l 1
 0 -200 l 1
 0 242 l 1
 12 242 l 1xa0
EndSplineSet
EndChar

StartChar: uniE770
Encoding: 694 59248 520
Width: 12
Flags: W
HStem: 347 20G<0 12> 347 20G<0 12>
VStem: 0 12<-200 367>
LayerCount: 2
Fore
SplineSet
12 367 m 5xa0
 12 -200 l 5
 0 -200 l 5
 0 367 l 5
 12 367 l 5xa0
EndSplineSet
EndChar

StartChar: uniE780
Encoding: 704 59264 530
Width: 12
Flags: W
HStem: 472 20G<0 12> 472 20G<0 12>
VStem: 0 12<-200 492>
LayerCount: 2
Fore
SplineSet
12 492 m 1xa0
 12 -200 l 1
 0 -200 l 1
 0 492 l 1
 12 492 l 1xa0
EndSplineSet
EndChar

StartChar: uniE0F0
Encoding: 713 57584 539
Width: 128
Flags: W
HStem: -223 49<43.5312 125.333> 100 20G<8.66667 14.6666 37 48> 100 20G<8.66667 14.6666>
VStem: 2 18<-128 115.688> 6 12<-128 95.1492> 114 12<-172.738 -87>
LayerCount: 2
Fore
SplineSet
12 120 m 8xd4
 17.3333 120 20 113.333 20 100 c 18xb4
 18 -128 l 1
 45.3333 -158.667 71.3333 -174 96 -174 c 0
 108 -174 114 -168 114 -156 c 0
 114 -148 112.667 -141 110 -135 c 0
 107.333 -129 101 -122.5 91 -115.5 c 0
 81 -108.5 74.3333 -104 71 -102 c 2
 37 -83 l 1
 37 -38 l 1
 59 -38 79.3333 -44.1667 98 -56.5 c 0
 116.667 -68.8333 126 -81 126 -93 c 0
 126 -179.667 125.667 -223 125 -223 c 0
 75.6667 -223 36 -207.333 6 -176 c 9xac
 2 -74.6667 0.666667 17 2 99 c 0
 2 113 5.33333 120 12 120 c 8xd4
EndSplineSet
EndChar

StartChar: uniE0F8
Encoding: 721 57592 547
Width: 128
VWidth: 976
Flags: W
HStem: 60 20G<25.6666 29.3334 93 99.6665>
VStem: 19 17<-183 -90.0227 -45 78> 89 15<-338 -219 -174 -82>
LayerCount: 2
Fore
SplineSet
89 -82 m 25
 37 -90 l 17
 36.3333 -90 36 -121 36 -183 c 1
 89 -174 l 25
 89 -82 l 25
17 78 m 1
 20.3333 79.3333 23.8333 80 27.5 80 c 0
 31.1667 80 34.6667 79.3333 38 78 c 1
 38 4 l 25
 37 -45 l 1
 62 -41 l 2
 76 -38.3333 88 -37 98 -37 c 0
 101.333 -37 103.333 -38.6667 104 -42 c 1
 107 -338 l 1
 104.333 -341.333 101.333 -343 98 -343 c 0
 96.6667 -343 95.3333 -342.667 94 -342 c 0
 86 -339 l 1
 86.6667 -338.333 87 -311 87 -257 c 2
 87 -219 l 1
 57 -224 l 1
 27 -229 l 1
 22.3333 -228.333 19.6667 -225.667 19 -221 c 1
 19 -112 l 1
 18 -11 l 1
 17 61 l 1
 17 78 l 1
EndSplineSet
EndChar

StartChar: staffext
Encoding: 729 57568 555
Width: 0
Flags: W
HStem: -16 16<-129 258>
LayerCount: 2
Fore
SplineSet
-129 0 m 5
 258 0 l 5
 258 -16 l 5
 -129 -16 l 5
 -129 0 l 5
EndSplineSet
EndChar

StartChar: plus
Encoding: 43 43 558
Width: 128
Flags: HW
HStem: -16 16<0 137.2> 234 16<0 137.2> 484 16<0 137.2> 617 21G<57 72> 617 21G<57 72> 734 16<0 137.2>
VStem: 0 137.2<-16 0 234 250 484 500 734 750> 57 15<617 867>
LayerCount: 2
Fore
SplineSet
57 617 m 1xf5
 57 867 l 1
 72 867 l 1
 72 617 l 1
 57 617 l 1xf5
EndSplineSet
Refer: 600 -1 S 1.4 0 0 1 0 0 2
EndChar

StartChar: uniE280
Encoding: 736 57984 563
Width: 128
Flags: W
HStem: -229 194<36 65>
VStem: 2 125<-129 -129>
LayerCount: 2
Fore
SplineSet
65 -35 m 24
 70.3333 -51.6667 80.6667 -69.6667 96 -89 c 256
 127 -129 l 1
 108 -164 l 2
 87.3333 -200 63.3333 -221.667 36 -229 c 1
 42 -224.333 45 -218 45 -210 c 0
 45 -198.667 38.6667 -183.667 26 -165 c 2
 2 -129 l 1
 65 -35 l 24
EndSplineSet
EndChar

StartChar: uniE240
Encoding: 752 57920 579
Width: 483
Flags: W
HStem: -69 20G<0 51>
VStem: 0 483<-432 -201>
LayerCount: 2
Fore
SplineSet
460 -594 m 0
 397.333 -572.667 320.333 -523 229 -445 c 0
 165.667 -392.333 89.3333 -311 0 -201 c 1
 0 -49 l 1
 102 -175 179.333 -266.333 232 -323 c 0
 292 -387.667 359 -436.667 433 -470 c 0
 438.333 -472.667 443.667 -474 449 -474 c 0
 465 -474 476.333 -460 483 -432 c 1
 483 -578 l 2
 483 -590 478.667 -596 470 -596 c 0
 467.333 -596 464 -595.333 460 -594 c 0
EndSplineSet
EndChar

StartChar: uniE250
Encoding: 763 57936 590
Width: 483
Flags: W
HStem: -69 20G<0 23.6667>
VStem: 0 483<-557 -201>
LayerCount: 2
Fore
SplineSet
460 -719 m 0
 399.333 -690.333 322 -620 228 -508 c 0
 162 -430 86 -327.667 0 -201 c 1
 0 -49 l 1
 47.3333 -137 124.667 -249.333 232 -386 c 0
 302 -475.333 369 -545 433 -595 c 0
 439.667 -599.667 445.667 -602 451 -602 c 0
 465 -602 475.667 -587 483 -557 c 1
 483 -704 l 2
 483 -716 479.333 -722 472 -722 c 0
 468.667 -722 464.667 -721 460 -719 c 0
EndSplineSet
EndChar

StartChar: staff
Encoding: 773 -1 600
Width: 0
Flags: W
HStem: -16 16<0 98> 234 16<0 98> 484 16<0 98> 734 16<0 98>
VStem: 0 98<-16 0 234 250 484 500 734 750>
LayerCount: 2
Fore
SplineSet
0 0 m 5
 98 0 l 5
 98 -16 l 5
 0 -16 l 5
 0 0 l 5
0 250 m 5
 98 250 l 5
 98 234 l 5
 0 234 l 5
 0 250 l 5
0 500 m 5
 98 500 l 5
 98 484 l 5
 0 484 l 5
 0 500 l 5
0 750 m 5
 98 750 l 5
 98 734 l 5
 0 734 l 5
 0 750 l 5
EndSplineSet
EndChar

StartChar: uniE2E0
Encoding: 902 58080 784
Width: 0
Flags: W
HStem: -180 20<-261 3>
VStem: -263 268<-180 -160 -180 -160>
LayerCount: 2
Fore
SplineSet
5 -160 m 1
 3 -180 l 1
 -263 -180 l 1
 -261 -160 l 1
 5 -160 l 1
EndSplineSet
EndChar

StartChar: uni2123
Encoding: 933 8483 815
Width: 740
VWidth: 2048
Flags: HW
LayerCount: 2
Fore
SplineSet
256 156.5 m 1
 275 204 l 1
 263.5 231 263.5 231 250.5 261 c 0
 239.5 286.5 239.5 286.5 225.25 319.25 c 128
 211 352 211 352 196.5 386.5 c 2
 117.5 569.5 l 2
 111.5 584.165 106.334 595.585 102 603.75 c 128
 97.666 611.915 93.834 618.25 90.5 622.75 c 128
 87.166 627.25 84.166 630.585 81.5 632.75 c 128
 77.5 636 77.5 636 73 639.5 c 0
 65.334 645.5 56.666 650.085 47 653.25 c 128
 37.333 656.415 24.5 658.665 8.5 660 c 1
 8.5 678 l 1
 286 678 l 1
 286 660 l 1
 266 658.335 250.584 655.585 239.75 651.75 c 128
 228.916 647.915 221.334 642.5 217 635.5 c 1
 211 626.835 209.5 614.585 212.5 598.75 c 128
 215.5 582.915 222.5 562 233.5 536 c 1
 259.5 477.5 259.5 477.5 279.5 431.5 c 0
 288 412 288 412 296.25 393 c 128
 304.5 374 304.5 374 310.75 359.25 c 128
 314.916 349.416 318.166 341.5 320.5 335.5 c 2
 324.5 326.5 l 1
 367 436.5 l 2
 374.666 455.166 381.166 472.334 386.5 488 c 128
 391.834 503.665 396.166 518.165 399.5 531.5 c 128
 402.834 544.835 405.25 557.25 406.75 568.75 c 128
 408.25 580.25 409 591.335 409 602 c 0
 409 616 407.584 626.5 404.75 633.5 c 128
 401.916 640.5 398.75 647 395.25 653 c 128
 391.75 659 388.584 665.835 385.75 673.5 c 128
 382.916 681.165 381.5 692.5 381.5 707.5 c 0
 381.5 710.165 382 713.335 383 717 c 128
 384 720.665 385.5 724.165 387.5 727.5 c 128
 389.5 730.835 392.084 733.665 395.25 736 c 128
 398.416 738.335 402.334 739.5 407 739.5 c 0
 414 739.5 420.334 737 426 732 c 128
 431.666 727 436.334 720.415 440 712.25 c 128
 443.666 704.085 446.5 694.835 448.5 684.5 c 128
 450.5 674.165 451.5 663.835 451.5 653.5 c 0
 451.5 636.835 450 618.915 447 599.75 c 128
 444 580.585 440.25 561.5 435.75 542.5 c 128
 431.25 523.5 426.166 505.335 420.5 488 c 128
 414.834 470.666 409.5 455.5 404.5 442.5 c 2
 343 285 l 1
 345.5 279 l 2
 347.5 275 350 269.584 353 262.75 c 128
 357.5 252.5 357.5 252.5 363.25 239.25 c 128
 369 226 369 226 375 212 c 2
 407 138 l 1
 567 532 l 1
 576.665 557 583.5 577.165 587.5 592.5 c 128
 591.5 607.835 590.835 620 585.5 629 c 0
 583.835 632 581.665 634.835 579 637.5 c 128
 576.335 640.165 572.585 642.835 567.75 645.5 c 128
 562.915 648.165 556.585 650.75 548.75 653.25 c 128
 540.915 655.75 530.835 658 518.5 660 c 1
 518.5 678 l 1
 727 678 l 1
 727 660 l 1
 715.335 658.335 704.835 655.665 695.5 652 c 128
 686.165 648.335 678.665 643.5 673 637.5 c 1
 655.665 621.5 639.835 596.5 625.5 562.5 c 1
 389.5 -16 l 1
 370.5 -16 l 1
 293.5 162.5 l 1
 278.834 125.166 268.084 93.5 261.25 67.5 c 128
 254.416 41.5 251 18 251 -3 c 0
 251 -17 252.416 -27.5 255.25 -34.5 c 128
 258.084 -41.5 261.25 -48 264.75 -54 c 128
 268.25 -60 271.416 -66.834 274.25 -74.5 c 128
 277.084 -82.166 278.5 -93.5 278.5 -108.5 c 0
 278.5 -111.166 278 -114.334 277 -118 c 128
 276 -121.666 274.5 -125.166 272.5 -128.5 c 128
 270.5 -131.834 267.916 -134.666 264.75 -137 c 128
 261.584 -139.334 257.666 -140.5 253 -140.5 c 0
 246 -140.5 239.666 -138 234 -133 c 128
 228.334 -128 223.666 -121.416 220 -113.25 c 128
 216.334 -105.084 213.5 -95.834 211.5 -85.5 c 128
 209.5 -75.166 208.5 -64.834 208.5 -54.5 c 0
 208.5 -37.834 210 -19.916 213 -0.75 c 128
 216 18.416 219.834 37.5 224.5 56.5 c 128
 229.166 75.5 234.25 93.666 239.75 111 c 128
 245.25 128.334 250.666 143.5 256 156.5 c 1
EndSplineSet
LCarets2: 1 0 
Ligature2: "'liga' Standard Ligatures in Latin lookup 1 subtable" V V
EndChar

StartChar: uni211F
Encoding: 934 8479 816
Width: 707
VWidth: 2048
Flags: HW
LayerCount: 2
Fore
SplineSet
494 20 m 13
 441.5 92 l 21
 426.834 54.666 415.084 19.5 408.25 -6.5 c 132
 401.416 -32.5 398 -56 398 -77 c 4
 398 -91 399.416 -101.5 402.25 -108.5 c 132
 405.084 -115.5 408.25 -122 411.75 -128 c 132
 415.25 -134 418.416 -140.834 421.25 -148.5 c 132
 424.084 -156.166 425.5 -167.5 425.5 -182.5 c 4
 425.5 -185.166 425 -188.334 424 -192 c 132
 423 -195.666 421.5 -199.166 419.5 -202.5 c 132
 417.5 -205.834 414.916 -208.666 411.75 -211 c 132
 408.584 -213.334 404.666 -214.5 400 -214.5 c 4
 393 -214.5 386.666 -212 381 -207 c 132
 375.334 -202 370.666 -195.416 367 -187.25 c 132
 363.334 -179.084 360.5 -169.834 358.5 -159.5 c 132
 356.5 -149.166 355.5 -138.834 355.5 -128.5 c 4
 355.5 -111.834 357 -93.916 360 -74.75 c 132
 363 -55.584 366.834 -36.5 371.5 -17.5 c 132
 376.166 1.5 381.25 19.666 386.75 37 c 132
 392.25 54.334 399.666 69.5 405 82.5 c 5
 419 122 l 5
 282 317 l 1
 273 316.334 265.166 315.834 258.5 315.5 c 128
 251.834 315.166 245.916 315 240.75 315 c 128
 235.584 315 230.584 315.084 225.75 315.25 c 128
 220.916 315.416 215.666 316 210 317 c 1
 210 120.5 l 2
 210 77.166 214.834 50.834 224.5 41.5 c 1
 236.834 26.5 256 19 282 19 c 2
 308.5 19 l 1
 308.5 0 l 1
 18 0 l 1
 18 19 l 1
 43.5 19 l 2
 72.834 19 93.166 28 104.5 46 c 0
 111.166 56.666 114.5 81.5 114.5 120.5 c 2
 114.5 558.5 l 2
 114.5 600.165 110.166 626.835 101.5 638.5 c 1
 94.5 645.5 86.25 650.835 76.75 654.5 c 128
 67.25 658.165 56.166 660 43.5 660 c 2
 18 660 l 1
 18 678 l 1
 264 678 l 2
 300.334 678 331.916 676.75 358.75 674.25 c 132
 385.584 671.75 407.666 667.665 425 662 c 260
 442.334 656.335 458.416 648.585 473.25 638.75 c 132
 488.084 628.915 501 617.335 512 604 c 132
 523 590.665 531.585 575.665 537.75 559 c 132
 543.915 542.335 547 524.335 547 505 c 4
 547 484 543.585 464.25 536.75 445.75 c 132
 529.915 427.25 519.665 410.5 506 395.5 c 132
 492.334 380.5 475.084 367.416 454.25 356.25 c 132
 433.416 345.084 408.834 336.334 380.5 330 c 5
 453 224 l 5
 462.5 212 l 5
 560 428 l 5
 574.665 465.334 585.415 497 592.25 523 c 132
 599.085 549 602.5 572.5 602.5 593.5 c 4
 602.5 607.5 601.085 618 598.25 625 c 132
 595.415 632 592.25 638.5 588.75 644.5 c 132
 585.25 650.5 582.085 657.335 579.25 665 c 132
 576.415 672.665 575 684 575 699 c 4
 575 701.665 575.5 704.835 576.5 708.5 c 132
 577.5 712.165 579 715.665 581 719 c 132
 583 722.335 585.585 725.165 588.75 727.5 c 132
 591.915 729.835 595.835 731 600.5 731 c 4
 607.5 731 613.835 728.5 619.5 723.5 c 132
 625.165 718.5 629.835 711.915 633.5 703.75 c 132
 637.165 695.585 640 686.335 642 676 c 132
 644 665.665 645 655.335 645 645 c 4
 645 628.335 643.5 610.415 640.5 591.25 c 132
 637.5 572.085 633.665 553 629 534 c 132
 624.335 515 619.25 496.834 613.75 479.5 c 132
 608.25 462.166 602.835 447 597.5 434 c 6
 486 184 l 5
 497.334 171 574.165 71.084 584.5 62.25 c 132
 594.835 53.416 605.5 46.083 616.5 40.25 c 132
 627.5 34.417 639.165 29.833 651.5 26.5 c 132
 663.835 23.167 677.665 20.667 693 19 c 5
 693 0 l 5
 455 0 l 21
 455 19 l 5
 494 20 l 13
434.5 496.5 m 260
 434.5 517.835 431.084 537.25 424.25 554.75 c 132
 417.416 572.25 407.666 587.25 395 599.75 c 132
 382.334 612.25 367 622 349 629 c 132
 331 636 310.834 639.835 288.5 640.5 c 0
 279.834 640.5 268.916 639.75 255.75 638.25 c 128
 242.584 636.75 227.334 634.665 210 632 c 1
 210 349 l 1
 238.5 349 l 2
 271.834 349 300.75 352.666 325.25 360 c 128
 349.75 367.334 370.084 377.584 386.25 390.75 c 132
 402.416 403.916 414.5 419.5 422.5 437.5 c 132
 430.5 455.5 434.5 475.166 434.5 496.5 c 260
EndSplineSet
Ligature2: "'liga' Standard Ligatures in Latin lookup 1 subtable" R R
EndChar

StartChar: NameMe.935
Encoding: 935 -1 817
Width: 736
VWidth: 2048
Flags: HW
LayerCount: 2
Fore
SplineSet
340 539 m 1
 222 264 l 1
 455 264 l 1
 340 539 l 1
461 0 m 1
 461 19 l 1
 484.667 19.333 501.5 22.75 511.5 29.25 c 0
 521.5 35.75 527.333 44.167 529 54.5 c 0
 530.667 64.833 529.25 76.583 524.75 89.75 c 0
 520.25 102.917 515.167 116.333 509.5 130 c 2
 487.321 183.395 l 1
 447 95 l 1
 432.334 57.666 420.584 22.5 413.75 -3.5 c 0
 406.916 -29.5 403.5 -53 403.5 -74 c 0
 403.5 -88 404.916 -98.5 407.75 -105.5 c 0
 410.584 -112.5 413.75 -119 417.25 -125 c 0
 420.75 -131 423.916 -137.834 426.75 -145.5 c 0
 429.584 -153.166 431 -164.5 431 -179.5 c 0
 431 -182.166 430.5 -185.334 429.5 -189 c 0
 428.5 -192.666 427 -196.166 425 -199.5 c 0
 423 -202.834 420.416 -205.666 417.25 -208 c 0
 414.084 -210.334 410.166 -211.5 405.5 -211.5 c 0
 398.5 -211.5 392.166 -209 386.5 -204 c 0
 380.834 -199 376.166 -192.416 372.5 -184.25 c 0
 368.834 -176.084 366 -166.834 364 -156.5 c 0
 362 -146.166 361 -135.834 361 -125.5 c 0
 361 -108.834 362.5 -90.916 365.5 -71.75 c 0
 368.5 -52.584 372.334 -33.5 377 -14.5 c 0
 381.666 4.5 386.75 22.666 392.25 40 c 0
 397.75 57.334 405.166 72.5 410.5 85.5 c 2
 424.5 125 l 1
 470.294 224.384 l 1
 469 227.5 l 1
 206 227.5 l 1
 160 119.5 l 2
 153.667 104.167 148.833 90.667 145.5 79 c 0
 142.167 67.333 142.25 57.333 145.75 49 c 0
 149.25 40.667 156.917 34.083 168.75 29.25 c 0
 180.583 24.417 198.333 21 222 19 c 1
 222 0 l 1
 7.5 0 l 1
 7.5 19 l 1
 21.833 20 34.333 23.083 45 28.25 c 0
 55.667 33.417 65.25 40.833 73.75 50.5 c 0
 82.25 60.167 90.167 72.083 97.5 86.25 c 0
 104.833 100.417 112.5 116.667 120.5 135 c 2
 358.5 694 l 1
 376.5 694 l 1
 523.96 340.848 l 1
 565.5 431 l 1
 580.165 468.334 590.915 500 597.75 526 c 0
 604.585 552 608 575.5 608 596.5 c 0
 608 610.5 606.585 621 603.75 628 c 0
 600.915 635 597.75 641.5 594.25 647.5 c 0
 590.75 653.5 587.585 660.335 584.75 668 c 0
 581.915 675.665 580.5 687 580.5 702 c 0
 580.5 704.665 581 707.835 582 711.5 c 0
 583 715.165 584.5 718.665 586.5 722 c 0
 588.5 725.335 591.085 728.165 594.25 730.5 c 0
 597.415 732.835 601.335 734 606 734 c 0
 613 734 619.335 731.5 625 726.5 c 0
 630.665 721.5 635.335 714.915 639 706.75 c 0
 642.665 698.585 645.5 689.335 647.5 679 c 0
 649.5 668.665 650.5 658.335 650.5 648 c 0
 650.5 631.335 649 613.415 646 594.25 c 0
 643 575.085 639.165 556 634.5 537 c 0
 629.835 518 624.75 499.834 619.25 482.5 c 0
 613.75 465.166 608.832 449.785 603 437 c 2
 540.774 300.581 l 1
 612 130 l 2
 622 106.333 631 87.417 639 73.25 c 0
 647 59.083 655.25 48.167 663.75 40.5 c 0
 672.25 32.833 681.583 27.583 691.75 24.75 c 0
 701.917 21.917 714 20 728 19 c 1
 728 0 l 1
 461 0 l 1
EndSplineSet
Ligature2: "'liga' Standard Ligatures in Latin lookup 1 subtable" A A
EndChar

StartChar: boldstaff
Encoding: 936 -1 818
Width: 0
Flags: HW
LayerCount: 2
Fore
SplineSet
0 4 m 1
 98 4 l 1
 98 -20 l 5
 0 -20 l 5
 0 4 l 1
0 254 m 1
 98 254 l 1
 98 230 l 1
 0 230 l 1
 0 254 l 1
0 504 m 1
 98 504 l 1
 98 480 l 1
 0 480 l 1
 0 504 l 1
0 754 m 1
 98 754 l 1
 98 730 l 1
 0 730 l 1
 0 754 l 1
EndSplineSet
EndChar

StartChar: boldstaffext
Encoding: 937 -1 819
Width: 0
Flags: HW
LayerCount: 2
Fore
SplineSet
-129 4 m 1
 258 4 l 1
 258 -20 l 1
 -129 -20 l 1
 -129 4 l 1
EndSplineSet
EndChar
